<svg xmlns="http://www.w3.org/2000/svg" viewBox="0 0 580.68 580.54"><title>profil</title><g id="aa62769f-9083-4515-90f4-478106301930" data-name="Ebene 1"><ellipse cx="290.34" cy="290.27" rx="290.34" ry="290.27" style="fill:#ff5722"/></g><g id="b72e5de0-579d-4f98-8f5f-3c3aded52b1c" data-name="Ebene 2"><ellipse cx="290.9" cy="185.23" rx="115.5" ry="114.5" style="fill:#fff"/></g><g id="b222dff8-14c3-4f96-a763-227241c83203" data-name="Ebene 4"><path d="M316.21,280.75l3.54.11,1.55,2.87,2.43,2.44L326.5,289l3.42,2.44,3,2.54,2.54,2.43,3.87,2.88,4,2.65,3.65,2.44,4.09,2.54,3.65,2.32,5.42,2.66,5,2.54,6.31,2.77,6.86,2.43,3.53,1.33,5.09,1.43,5.09,1.33,6.64,1.11,8.95,1.21,15.05,1,12.94-.67,8.84-1.54,6.53-1.33,5.2-1.22,5.08-1.44,4.1-1.32,3.76-1.11,6.41-2.65,5.09-2.66,5.42-2.54,5.2-2.32,3.87-2.77,10.17-7.63,6.53-5.2,4.86-4.09,4.21-3.76,2.43-3.65L527,281l3.76,2.65,6.53,4,7.74,5,9.07,6.42,6.3,5.19,8,7.75,7.64,7.52,7.74,9.07,5.2,6.74,7.52,10.29,5.08,7.63,5.2,9,3.87,7.85,3.76,7.74,2.66,6.42,3.87,8.73,3.65,11.51,4,14.37,2.54,11.51,1.33,6.3,1.44,7.74-.11,2.77-6.42,6.74-2.87,3.88-5.09,5L609.3,472.86l-7.75,7.63-8.73,7.63-6.64,5.53-6.3,5-10.4,7.52L558,514l-11.61,6.64-13,6.3-13.94,6.19-16.81,6.64-12.83,3.76L479.34,546l-12.49,2.66L450,551.05l-55.41.33-11.83-1.32-7.63-1.33-6.86-1.22-4.86-1.21-5.31-1.44-17.81-5.2-16.7-6.53-11.5-5-13.05-6.53-11.84-6.52-6.08-3.76-7.63-5L259.25,496l-6.3-5.2-7.86-6.3-11.5-11.61-10.17-10.29-5.09-5.2-4.09-5.19-4.65-5.09-.55-2.77,1.44-7.85,1.55-6.3,1.43-6.42s.78-5,.89-5.31,1.44-4.86,1.44-4.86l1.1-5.53s1.44-3.32,1.44-3.65,1.44-3.76,1.44-3.76l1.21-4,2.22-7.53,4.2-9.4,3.87-7.74,3.76-7.52,6.53-11.39,3.53-6.42,2.66-4,4-5.2,3.76-5,6.75-7.63L270,317l6.19-6.3,6.42-6.41,11.5-9.18,5.42-4,10.17-6.41Z" transform="translate(-130.6 -7.54)" style="fill:#fff"/></g></svg>