<?xml version="1.0" encoding="utf-8"?>
<svg version="1.1" id="Ebene_1" xmlns="http://www.w3.org/2000/svg" xmlns:xlink="http://www.w3.org/1999/xlink" x="0px" y="0px"
	 viewBox="0 0 784.7 563.6" style="enable-background:new 0 0 784.7 563.6;" xml:space="preserve">
<style type="text/css">
	.st0{fill:#B80221;}
</style>
<path class="st0" d="M36.2,497.6c-16.8,0-27.3-7.8-31.6-23.3c-3-12.4-4.6-25.2-4.6-38C0,326.4,28.2,202.7,84.7,65
	c6.2-16.7,14-32.8,23.3-48.1C114.8,5.6,121.5,0,128.2,0c2.3,0,4.5,0.7,6.4,1.8c3.1,1.8,5,5.1,5,8.7c0,4-1.7,9.3-5,16
	c-44.9,108.7-72.2,191.1-82,247.2C38,333.3,29,386.1,25.7,432.2c-0.6,5.5-0.9,11-0.9,16.5c0,15.3,1.6,24.3,4.8,27.2
	s12.1,4.4,26.8,4.3c25.3,0,55.9-2.7,91.6-8c35.7-5.3,66.9-12.3,93.4-20.8c3.4-1.1,7-1.7,10.5-1.8c5.2,0,7.8,1.4,7.8,4.1
	c0,3-4.3,6.3-12.8,9.6c-36.7,11.9-97.3,22.4-181.8,31.6c-4.9,0.6-9.6,1.2-14.2,1.8C46,497.4,41.1,497.7,36.2,497.6z"/>
<path class="st0" d="M189.6,422.8c-14.1,0-21.1-11.6-21.1-34.8v-8c3.9-40.1,17.5-75.3,41-105.6c5-6.1,9.3-12.7,12.9-19.7
	c3.4-6.9,8.1-10.4,14.1-10.4c12.8,0,19.2,11.4,19.2,34.1c0,5.8-0.6,11.7-1.9,17.4l-0.6,4.7c0,8.9,5.6,13.4,16.7,13.4h7.7
	c15.8-0.1,31.6-1.8,47.1-5c16.9-3.3,29.4-7.9,37.5-13.7c3-3.1,6-4.7,9-4.7c4.3,0,6.8,1.8,7.7,5.3c0,3.1-2.1,6.3-6.4,9.4
	c-20.9,10.7-39.6,17.4-56.1,20c-18.3,2.8-36.9,4.2-55.4,4c-9.8,0-16.9,5.6-21.2,16.7C222.1,397.2,205.4,422.8,189.6,422.8z
	 M197.3,388.1c8.2-8,14.8-17.5,19.2-28.1c8.1-18.3,12.2-29.8,12.2-34.8c0-6.7-3.4-10-10.3-10c-2.8-0.1-5.3,1.5-6.4,4
	c-10.2,22.3-15.4,41.9-15.4,58.8L197.3,388.1z"/>
<path class="st0" d="M437.8,563.6c-7.3,0-12.1-5.6-14.2-16.9c-0.7-3.9-1.2-7.9-1.4-11.9c0-29.3,7-87.6,21-174.9
	c21.1-114.2,27.2-135.3,38.2-174.5c-22.9,2.1-47.4,5-72.5,8.4c-12.1,37-10.4,34-19,65.6c-6.4,23.8-16.8,62.1-20.5,87.7
	c-4.9,31.8-7.3,59.8-7.3,84.2c0,16.2,0.9,27.6,2.8,34.3c0.6,2.1,0.9,4.2,0.9,6.4c0,3.7-1.4,5.7-4.1,6c-6.7,0-11.7-11.4-15.1-34.3
	l-0.5-6.9c0-33.6-1.8-89,16.9-161.6c13.8-53.3,10.5-39.6,19.2-77.5c0,0,0.8-0.8-12.4,1.4c-53.1,7-85.1,10.5-96.1,10.5
	c-23.2,0-38.3-6.1-45.3-18.3c-1.3-2.6-2.2-5.4-2.7-8.2c0-11.9,3.8-17.8,11.4-17.8c7,0,11.8,3.2,14.2,9.6c0.6,11,14.8,16.5,42.6,16.5
	c22.9,0,60.1-3.3,93-9.4c17.7-41.8,55.2-137.4,64.9-137.4c5.8,0,9.9,3.1,12.4,9.1c0,7-38,99.1-50.5,126.6c41.8-4,68.9-6.2,71.8-7
	s34.3-81.3,40.1-91.7c9.8-15,18-22.4,24.7-22.4c4.9,0,8.9,2.7,11.9,8.2c-0.1,0.6,0.1,1.3,0.5,1.8c0,3.7-3.2,10.4-9.6,20.1
	c-0.3,0.3-38.2,77.8-39.7,81.8c28.4-2.1,60.7-3.6,89.1-3.6c121.5,0,182.2,16.5,182.2,49.4c0,5.2-2,7.8-6,7.8c-4.3,0-7.9-3.5-11-10.5
	c-19.2-24.4-67.5-36.6-144.7-36.6c-38.2,0.1-76.4,2.1-114.5,6c-16.5,28.1-41.2,141.1-61.3,259.2c-4.6,25.6-8.2,56.6-11,92.9
	c0.2,7.8,2.5,15.3,6.4,22C442.2,561.6,440.5,563.6,437.8,563.6z"/>
<path class="st0" d="M568.2,328.5c-0.9-0.8-2.1-1.2-3.3-1.3c-2.2,0-6.7,4.5-13.5,13.5c-18.7,22.6-31.3,33.9-37.8,33.9
	c-8.4,0-12.6-9-12.6-27.1c0-12.2,3.6-26.4,10.7-42.7c6-13.6,13.7-26.3,22.9-38c10.3-13.1,19.9-19.6,29-19.7c10,0,15.9,5.6,17.7,16.9
	c4.1-5.4,8.9-8.1,14.5-8.1c4.7,0,7,2.5,7,7.5c-0.2,3.5-1,6.9-2.3,10.2c-4.7,15.3-8.6,33.6-11.7,54.9c-3.1,23.5-4.7,41.6-4.7,54.2
	c0.6,21.7,4.7,32.5,12.1,32.5c5.3,0,10.6-2.5,15.9-7.5c9.6-8.6,27.9-34.6,54.6-77.9c17.4-28.9,27.7-43.4,30.8-43.4
	c1.5,0,2.3,1.4,2.3,4.1l0.5,2.7c-0.1,3.3-0.9,6.5-2.3,9.5c-10,16.7-26.7,43.4-50,80c-22.4,35.2-40.9,52.8-55.6,52.8
	c-18.1,0-27.1-21.2-27.1-63.7C565.4,357.3,566.3,342.8,568.2,328.5z M525.2,334.5l1.9-2c18.4-19.9,30-35.5,35-46.8
	C544.9,288.9,532.7,305.2,525.2,334.5L525.2,334.5z"/>
</svg>
