<svg version="1" xmlns="http://www.w3.org/2000/svg" width="933.333" height="933.333" viewBox="0 0 700.000000 700.000000">
<path fill="#000000" d="M337.9 29.5c-.2.2-3.1.6-6.4.9-3.3.3-7.3.8-9 1.1-15.2 2.7-21.9 4.1-34 7.1-7.7 1.9-14.7 3.6-15.5 3.8-9.4 2.3-41.1 12.4-51.5 16.4-31.2 12-54.4 25.1-78.7 44.4-13 10.4-15.2 12.3-32.2 28.8-20.5 20-35.5 38.5-49.9 61.7C57 199.6 45.5 222.5 43 229c-4.8 12.5-10.6 29.6-11.6 34.5-.1.5-.9 3.7-1.7 7-2.1 8-5.4 25.5-6.2 33-.4 3.3-.9 6.7-1 7.5-2.6 14.1-2.6 77.3 0 93.1.2 1.3.6 4.6.9 7.4 1.5 14.3 5.4 34.9 9.3 49.5.8 3 1.8 6.8 2.2 8.5.5 1.6 2.3 7.3 4.1 12.5 19.5 56.8 53.2 100.9 102 133.5 14.8 9.9 17.9 11.7 33.2 19.5 36.9 18.8 76 33.3 107.5 39.9 22.3 4.7 33.6 5.6 67.8 5.6 58.8 0 79-3.9 134.8-25.6C557.6 626.3 594 601 626.7 556c10.9-15.1 27.8-46 37.3-68.5 2.3-5.5 4.6-10.9 5.1-12 2.6-6.1 9.1-26.6 10.3-32.5.3-1.4 1.2-5.9 2-10 4.1-20.7 5.1-37 5.1-82.5 0-33.2-.5-46.8-1.9-54.1-1.3-6.3-3.4-13.3-5.6-18.9-.5-1.1-2.3-5.6-4-10-13.7-33.9-29.2-50.1-54.4-56.5-19.9-5-29-.3-34.9 18.1-3.3 10.1-5 20.1-4.5 25.4.3 2.4 3 9.6 6.1 16.2 7.7 16.3 12.5 31.1 14.2 43.1.3 2 .8 4.8 1 6.2 2.5 13.8 2.5 54.6-.1 77-3.7 32.3-8.2 53.8-16.6 78-7.9 22.7-21.4 47.2-36.7 66.5-7.8 9.8-29.2 30.9-38.6 38-4.4 3.3-8.2 6.2-8.5 6.5-2.8 3-26.7 17-36.5 21.5-12.4 5.6-33.4 13.5-40 14.9-.5.1-1.9.5-3 .9-1.1.3-3.1.8-4.5 1.1-1.4.3-5.4 1.2-9 2.1-17.7 4.4-29.4 5.9-45 5.9-34.4 0-68.7-7.5-120-26.2-10.4-3.8-30.2-13.2-43.5-20.6-21.9-12.2-40.9-26.9-61.9-48.1-26.6-26.7-43.8-55.2-55.4-91.5-2.2-6.8-7.6-28.1-8.6-34-.3-1.9-.8-4.5-1-5.6-.2-1.2-.7-3.7-1-5.5-.3-1.9-.8-4.5-1-5.8-.3-1.2-.8-4.4-1.1-7-.3-2.5-1-8.2-1.6-12.6-6.6-53 1.3-95.8 28-151.8 11.7-24.6 24.9-42.8 50.1-69.1 8.2-8.5 19.1-19.2 23-22.6 1.4-1.2 3.9-3.4 5.5-4.9 1.7-1.5 7.6-6.3 13.2-10.8C238 77 295.9 50.6 343.8 45.6c5.3-.6 13.3-1.5 18.7-2.2 9.9-1.1 12.5-1.7 14.2-2.9 1.7-1.3 1.7-1.4-.3-4.2-4-5.5-8.4-6.8-24-7-7.8-.1-14.4 0-14.5.2z"/>
<path fill="#b42d2c" d="M433.3 32.1c-7 4.4-9.8 17-9.7 45.4 0 18.5.8 26.4 4.9 48 .3 1.6.8 3.7 1.1 4.5.3.8.8 2.4 1 3.5.2 1.1 1.3 5.5 2.4 9.8 1.5 6.2 1.7 8.1.7 9.1-.6.6-5 4.5-9.7 8.5-4.7 4.1-8.7 7.7-9 8-.3.4-3.8 3.6-7.9 7.1-4.1 3.6-8.2 7.2-9.1 8-.9.8-5.9 5.3-11.1 10-9.5 8.6-30.4 29.2-37 36.6-7.2 8-16.1 20.8-19.9 28.8-5.1 10.8-9 21.2-9 24.3 0 6.6 8.2 13.3 16.3 13.3 6.7 0 23.2-10.6 49.2-31.4 9.8-7.9 29.3-24.6 33.8-28.9 8.9-8.6 24.4-22.6 28.7-25.8 4-3 5.6-3.7 7-2.9 1 .5 3.7 6.1 6.4 13.2 5.7 14.8 8.4 21.6 9.6 24.3.5 1.1 3.9 9.4 7.5 18.5 11.7 29.1 18.9 42 23.5 42 3 0 4.1-8.2 3.5-24.9-.2-8-.7-15.7-.9-17.1-.3-1.4-.8-5.2-1.1-8.5-1.1-8.7-1.2-10-1.9-13.2-.3-1.5-.8-4.3-1.1-6.1-.3-1.8-1.2-6.1-2.1-9.5-.8-3.4-1.7-7.1-1.9-8.2-.3-1.1-.8-3.4-1.2-5-.4-1.7-.7-3.2-.8-3.5-5.1-22.2-2.5-30.8 13.9-47.4 10.1-10.2 13-12.9 30.6-28.6 15.1-13.4 33.3-32 36.8-37.5 5.4-8.7 6.6-13.5 7.7-31.1l.6-9.1-16.8.3c-19.3.2-24.5 1.5-36 8.5-6.5 4-10.6 7-37.3 27.2-6.9 5.2-12.8 9.2-13.1 8.9-.3-.4-2.7-6.6-5.3-13.7-5.7-15.5-12.8-30.1-20.2-41-10.9-16.2-15.5-19.1-23.1-14.4z"/>
</svg>