<svg xmlns="http://www.w3.org/2000/svg" viewBox="0 0 580.68 580.54"><title>kalender</title><g id="bc2aecc9-da3c-4858-b57e-3494d5e1e634" data-name="Ebene 1"><ellipse cx="290.34" cy="290.27" rx="290.34" ry="290.27" style="fill:#ff5722"/></g><g id="f5d24b37-72e6-40de-bb2e-9b9df3bf5999" data-name="Ebene 2"><polygon points="160.72 96.03 162.05 91.55 163.05 89.06 164.37 86.73 166.86 83.08 169.68 80.6 172.67 78.11 174.99 76.78 178.14 75.78 188.43 75.78 192.24 77.11 195.89 79.6 198.88 82.92 201.7 86.73 203.86 91.55 205.02 96.03 205.18 113.11 203.03 118.92 200.21 123.9 198.22 126.22 195.56 128.71 192.08 131.03 188.26 132.36 177.31 132.19 175.32 130.86 171.67 128.71 169.18 126.55 166.7 124.06 164.37 120.41 162.22 115.27 161.06 110.29 160.72 96.03" style="fill:#fff"/><path d="M364.15,103.57a34.66,34.66,0,0,1,1.5-4.48l2.15-4.81,2.49-3.49,2.32-2.48L375.1,86l4.81-2.32,11.95-.33,4.64,2.49L399,88.14,402.48,92l2.32,4.64L406,98.92l1,4.48.16,18.58-2,5.64-2.65,4.81L399,136.25l-3.65,2.49-4.81,2.16h-9.45l-3.82-1.17s-3.32-2-3.82-2.48-4.31-5-4.31-5l-2.49-4.81-2.32-5.81Z" transform="translate(-130.6 -7.54)" style="fill:#fff"/><polygon points="303.73 96.19 305.39 91.55 308.7 85.24 312.35 80.43 315.67 78.11 320.15 75.95 331.93 75.78 338.57 79.6 341.88 83.08 344.37 86.9 347.03 92.38 348.19 98.51 347.86 113.11 346.86 117.59 344.54 122.9 341.88 126.22 338.73 129.7 334.75 132.03 331.27 133.52 319.65 133.35 316.67 132.03 313.18 129.7 310.86 127.21 307.54 122.57 305.22 117.59 303.56 112.95 303.73 96.19" style="fill:#fff"/><polygon points="374.9 95.86 376.23 91.38 378.88 86.4 382.53 81.76 385.02 79.27 388.5 77.11 391.82 75.78 402.94 75.78 407.75 77.94 412.06 82.25 415.38 86.4 417.37 90.72 419.36 96.19 419.36 112.28 418.53 116.26 416.04 121.41 413.55 125.06 409.9 128.71 406.25 131.03 402.77 132.36 390.99 132.19 385.68 129.7 382.36 126.22 378.71 120.91 376.39 116.26 375.23 111.78 374.9 95.86" style="fill:#fff"/><path d="M229.61,214.39V136.91l1.33-2.32,3.32-4.81,2.82-2.16,4.14-2.48,49.11-.17,1.49,4,2.16,5.48,3.65,4.31,3.65,3.32,5.81,2.32,2.48.83,8.13.16,3.49-1.16,4-2.32,3-2.49,3.65-3.65,2.82-4.48,2.33-6.13H362l3.48,8.29,2.32,3.65,6,5,4.48,2.49,4.31.82,8,.17,3.65-1.33,4.81-2.82,3.65-3,3.49-4.32,2.15-5,.83-4h24.22l2.33,7.13,2.32,3.48,3.48,4.15,3.49,2.49,4,2.16,3.48.82h8.3c.49,0,5.64-2,5.64-2l4-2.48,3.48-3.49,3.82-4.81,1.82-4.15,1.33-3.48h22.73l2.32,7,3.32,5.47,4.15,3.65,3.15,2.32,3.32,1.17,3.65.82,8.46.17,3.81-1.33,4.81-2.49,4.15-3,3.49-4,2.15-4,1-5.81,48.77.17,2.49,1.49,3.48,2.82,2,2.65,2.49,3.65,1.5,4.32-.17,74.48Z" transform="translate(-130.6 -7.54)" style="fill:#fff"/><path d="M245.21,493.26l-3.49-1.32-5-3.65s-2.82-3-3.31-3.65-2.49-5.15-2.49-5.15l-.33-249.84,26.54.17.33,231.59,1.66,3.48,3.15,3.32,2.82,2.16,3.32,1H574l3-1.16,2.66-2.15,2.32-3.32,1.16-3.49.17-231.59h27.53L611,478.17l-2.32,4.64-2.32,3.49-3.82,3.15-2.82,1.49-3.32,1.66-4.15,1Z" transform="translate(-130.6 -7.54)" style="fill:#fff"/></g></svg>