<?xml version="1.0" encoding="iso-8859-1"?>
<!-- Generator: Adobe Illustrator 19.0.0, SVG Export Plug-In . SVG Version: 6.00 Build 0)  -->
<svg version="1.1" id="Layer_1" xmlns="http://www.w3.org/2000/svg" xmlns:xlink="http://www.w3.org/1999/xlink" x="0px" y="0px"
	 viewBox="0 0 512 512" style="enable-background:new 0 0 512 512;" xml:space="preserve">
<path style="fill:#ff5722;" d="M481.082,123.718V72.825c0-11.757-9.531-21.287-21.287-21.287H36
	c-11.756,0-21.287,9.53-21.287,21.287v50.893L481.082,123.718L481.082,123.718z"/>
<g>
	<path style="fill:#ff5722;" d="M481.082,138.431H14.713C6.587,138.431,0,131.843,0,123.718V72.825c0-19.85,16.151-36,36-36h423.793
		c19.851,0,36,16.151,36,36v50.894C495.795,131.844,489.208,138.431,481.082,138.431z M29.426,109.005h436.942v-36.18
		c0-3.625-2.949-6.574-6.574-6.574H36c-3.625,0-6.574,2.949-6.574,6.574V109.005z"/>
	<path style="fill:#ff5722;" d="M144.238,282.415H74.93c-8.126,0-14.713-6.589-14.713-14.713v-61.765
		c0-8.125,6.587-14.713,14.713-14.713h69.308c8.126,0,14.713,6.589,14.713,14.713c0,8.125-6.587,14.713-14.713,14.713H89.643v32.338
		h54.595c8.126,0,14.713,6.589,14.713,14.713S152.364,282.415,144.238,282.415z"/>
</g>
<rect x="213.238" y="205.94" style="fill:#ff5722;" width="69.314" height="61.765"/>
<g>
	<path style="fill:#ff5722;" d="M282.552,282.415h-69.308c-8.126,0-14.713-6.589-14.713-14.713v-61.765
		c0-8.125,6.587-14.713,14.713-14.713h69.308c8.126,0,14.713,6.589,14.713,14.713v61.765
		C297.265,275.826,290.678,282.415,282.552,282.415z M227.957,252.988h39.882V220.65h-39.882V252.988z"/>
	<path style="fill:#ff5722;" d="M144.238,406.06H74.93c-8.126,0-14.713-6.589-14.713-14.713v-61.765
		c0-8.125,6.587-14.713,14.713-14.713h69.308c8.126,0,14.713,6.589,14.713,14.713s-6.587,14.713-14.713,14.713H89.643v32.338h54.595
		c8.126,0,14.713,6.589,14.713,14.713S152.364,406.06,144.238,406.06z"/>
</g>
<rect x="213.238" y="329.575" style="fill:#ff5722;" width="69.314" height="61.765"/>
<path style="fill:#ff5722;" d="M282.552,406.06h-69.308c-8.126,0-14.713-6.589-14.713-14.713v-61.765
	c0-8.125,6.587-14.713,14.713-14.713h69.308c8.126,0,14.713,6.589,14.713,14.713v61.765
	C297.265,399.471,290.678,406.06,282.552,406.06z M227.957,376.633h39.882v-32.338h-39.882V376.633z"/>
<rect x="351.557" y="205.94" style="fill:#ff5722;" width="69.314" height="61.765"/>
<g>
	<path style="fill:#ff5722;" d="M420.864,282.415h-69.308c-8.126,0-14.713-6.589-14.713-14.713v-61.765
		c0-8.125,6.587-14.713,14.713-14.713h69.308c8.126,0,14.713,6.589,14.713,14.713v61.765
		C435.577,275.826,428.99,282.415,420.864,282.415z M366.269,252.988h39.882V220.65h-39.882V252.988L366.269,252.988z"/>
	<path style="fill:#ff5722;" d="M99.532,92.878c-8.126,0-14.713-6.589-14.713-14.713V22.06c0-8.125,6.587-14.713,14.713-14.713
		s14.713,6.589,14.713,14.713v56.106C114.245,86.291,107.658,92.878,99.532,92.878z"/>
	<path style="fill:#ff5722;" d="M247.897,92.878c-8.126,0-14.713-6.589-14.713-14.713V22.06c0-8.125,6.587-14.713,14.713-14.713
		s14.713,6.589,14.713,14.713v56.106C262.61,86.291,256.023,92.878,247.897,92.878z"/>
	<path style="fill:#ff5722;" d="M396.263,92.878c-8.126,0-14.713-6.589-14.713-14.713V22.06c0-8.125,6.587-14.713,14.713-14.713
		s14.713,6.589,14.713,14.713v56.106C410.976,86.291,404.389,92.878,396.263,92.878z"/>
	<path style="fill:#ff5722;" d="M389.88,504.653c-67.338,0-122.12-54.782-122.12-122.12s54.782-122.12,122.12-122.12
		c36.752,0,71.2,16.321,94.512,44.78c5.15,6.285,4.229,15.556-2.058,20.706c-6.285,5.148-15.556,4.229-20.706-2.058
		c-17.7-21.608-43.851-33.999-71.747-33.999c-51.111,0-92.693,41.582-92.693,92.693s41.582,92.693,92.693,92.693
		s92.693-41.582,92.693-92.693c0-8.125,6.587-14.713,14.713-14.713c8.126,0,14.713,6.589,14.713,14.713
		C512,449.87,457.218,504.653,389.88,504.653z"/>
	<path style="fill:#ff5722;" d="M228.475,490.606H36c-19.85,0-36-16.151-36-36V72.825c0-19.85,16.151-36,36-36h423.793
		c19.851,0,36,16.151,36,36v164.701c0,8.125-6.587,14.713-14.713,14.713c-8.126,0-14.713-6.589-14.713-14.713V72.825
		c0-3.625-2.949-6.574-6.574-6.574H36c-3.625,0-6.574,2.949-6.574,6.574v381.781c0,3.625,2.949,6.574,6.574,6.574h192.474
		c8.126,0,14.713,6.589,14.713,14.713C243.187,484.018,236.601,490.606,228.475,490.606z"/>
</g>
<polyline style="fill:#ffffff;" points="429.606,382.533 389.88,382.533 389.88,342.808 "/>
<path style="fill:#ff5722;" d="M429.606,397.247H389.88c-8.126,0-14.713-6.589-14.713-14.713v-39.726
	c0-8.125,6.587-14.713,14.713-14.713s14.713,6.589,14.713,14.713v25.012h25.012c8.126,0,14.713,6.589,14.713,14.713
	S437.732,397.247,429.606,397.247z"/>
<g></g><g></g><g></g><g></g><g></g><g></g><g></g><g></g><g></g><g></g><g></g><g></g><g></g><g></g><g></g>
</svg>
