<svg id="Ebene_1" data-name="Ebene 1" xmlns="http://www.w3.org/2000/svg" viewBox="0 0 2000.09 2003.48"><defs><style>.cls-1{fill:#8f0414;}.cls-2{fill:#fff;}</style></defs><title>Lotta_Icon_neu1</title><path class="cls-1" d="M701.67,2000.1c1.28-16.3,1.76-26.3,3.34-41.59,5.12-49.43,32.48-265.82,42.2-324.37,22.55-135.79,47.77-269.77,78.11-404C875,1000.05,979.69,683.71,1034.84,531.45c59.48-164.19,123.52-326.6,190.21-488,6.74-16.29,10.39-27.32,17.46-43.47H2000.1l-.35,2000.09Z" transform="translate(-0.01 2.59)"/><path class="cls-1" d="M957.93,0c-5.32,10-4.55,9.75-9.22,18.46-32.25,60.12-57.11,123.47-82.62,186.6C778.78,421.21,700.7,640.54,636.43,864.69c-45.06,157.19-83.13,316-112.44,476.9q-24,132-39.44,265.33c-15,130.55-23.27,390.16-23.41,392.83H0V-.34Z" transform="translate(-0.01 2.59)"/><path class="cls-2" d="M946.58-.87,832.11,279.89s-56.28,109-165.31,467.81S529.62,1236.61,512,1363.23,465.68,1743,455.75,1838.08c-8.33,79.81-10.55,161.85-10.55,161.85,91.32,1.33,259.34.88,259.34.88l25.66-211.88,32.11-245s63.9-326.58,117.21-520.88c50.4-183.74,76.1-248.23,140.66-441.88S1138,254,1192.47,124.65,1246.63-2.59,1246.63-2.59Z" transform="translate(-0.01 2.59)"/></svg>